<svg xmlns="http://www.w3.org/2000/svg"  viewBox="0 0 32 32" width="32px" height="32px"><polygon fill="#ed0049" points="14.479,24.184 6.998,15.456 10.035,12.852 14.553,18.124 22.03,9.816 25.002,12.492"/><path fill="#0f518c" d="M16,5c5.728,0,10.442,4.402,10.949,10h4C30.433,7.184,23.947,1,16,1S1.567,7.184,1.05,15h4 C5.558,9.402,10.272,5,16,5z"/><path fill="#0f518c" d="M16,27c-5.728,0-10.442-4.402-10.949-10h-4C1.567,24.816,8.053,31,16,31s14.433-6.184,14.95-14h-4 C26.442,22.598,21.728,27,16,27z"/></svg>